<svg xmlns="http://www.w3.org/2000/svg" width="100" height="100" viewBox="0 0 100 100">
  <g>
    <ellipse cx="50" cy="50" fill="rgb(216,216,216)" rx="50" ry="50"/>
    <g transform="translate(25 26)">
      <ellipse cx="24" cy="24" fill="rgb(0,0,0)" rx="6.4" ry="6.4"/>
      <path fill="rgb(0,0,0)" fill-rule="evenodd" d="M14.34000015 8L18 4h12l3.65999985 4H40c2.20000076 0 4 1.8000002 4 4v24c0 2.20000076-1.79999924 4-4 4H8c-2.1999998 0-4-1.79999924-4-4V12c0-2.1999998 1.8000002-4 4-4h6.34000015zM14 24c0 5.52000046 4.47999954 10 10 10s10-4.47999954 10-10-4.47999954-10-10-10-10 4.47999954-10 10z"/>
      <path fill="none" d="M0 0h48v48H0V0z"/>
    </g>
  </g>
</svg>
