<svg xmlns="http://www.w3.org/2000/svg" width="60" height="60" viewBox="0 0 60 60">
  <g>
    <path fill="none" d="M0 0h60v60H0V0z"/>
    <path fill="rgb(240,78,49)" fill-rule="evenodd" d="M46.0272151 13.99760649c-.9680422-.9680422-2.53180266-.9680422-3.49984486 0L30.3896104 26.11054475 18.25185054 13.97278489c-.9680422-.9680422-2.53180267-.9680422-3.49984487 0-.9680422.9680422-.9680422 2.53180267 0 3.49984487L26.88976552 29.6103896 14.75200567 41.74814946c-.9680422.9680422-.9680422 2.53180267 0 3.49984487.9680422.9680422 2.53180267.9680422 3.49984487 0l12.13775985-12.13775985 12.13775985 12.13775985c.9680422.9680422 2.53180267.9680422 3.49984487 0 .9680422-.9680422.9680422-2.53180267 0-3.49984487L33.88945525 29.61038961l12.13775986-12.13775985c.9432206-.9432206.9432206-2.53180267 0-3.47502327z"/>
  </g>
</svg>
