<?xml version="1.0" encoding="utf-8"?>
<!-- Generator: Adobe Illustrator 24.1.2, SVG Export Plug-In . SVG Version: 6.00 Build 0)  -->
<svg version="1.1" id="Layer_1" xmlns="http://www.w3.org/2000/svg" xmlns:xlink="http://www.w3.org/1999/xlink" x="0px" y="0px"
	 viewBox="0 0 38 38" style="enable-background:new 0 0 38 38;" xml:space="preserve">
<style type="text/css">
	.st0{stroke:#000000;stroke-width:2;stroke-miterlimit:10;}
	.st1{fill:#2A3D8C;stroke:#000000;stroke-width:2;stroke-miterlimit:10;}
</style>
<g id="Grid_blue" transform="translate(1 1)">
	<g id="Group">
		<path id="Rectangle" class="st0" d="M2,0h32c1.1,0,2,0.9,2,2v4l0,0H0l0,0V2C0,0.9,0.9,0,2,0z"/>
		<rect id="Rectangle-2" y="6" class="st1" width="12" height="10"/>
		<rect id="Rectangle_Copy_33" y="16" class="st1" width="12" height="10"/>
		<rect id="Rectangle_Copy_35" x="12" y="16" class="st1" width="12" height="10"/>
		<rect id="Rectangle_Copy_37" x="12" y="26" class="st1" width="12" height="10"/>
		<path id="Rectangle_Copy_38" class="st1" d="M24,26h12l0,0v8c0,1.1-0.9,2-2,2H24l0,0V26L24,26z"/>
		<rect id="Rectangle_Copy_36" x="24" y="16" class="st1" width="12" height="10"/>
		<path id="Rectangle_Copy_34" class="st1" d="M0,26h12l0,0v10l0,0H2c-1.1,0-2-0.9-2-2V26L0,26z"/>
		<rect id="Rectangle_Copy_31" x="12" y="6" class="st1" width="12" height="10"/>
		<rect id="Rectangle_Copy_32" x="24" y="6" class="st1" width="12" height="10"/>
	</g>
</g>
</svg>
