<?xml version="1.0" encoding="utf-8"?>
<!-- Generator: Adobe Illustrator 24.1.2, SVG Export Plug-In . SVG Version: 6.00 Build 0)  -->
<svg version="1.1" id="Layer_1" xmlns="http://www.w3.org/2000/svg" xmlns:xlink="http://www.w3.org/1999/xlink" x="0px" y="0px"
	 viewBox="0 0 23 24" style="enable-background:new 0 0 23 24;" xml:space="preserve">
<style type="text/css">
	.st0{fill-rule:evenodd;clip-rule:evenodd;fill:#F04E31;fill-opacity:0.5;}
	.st1{fill-rule:evenodd;clip-rule:evenodd;}
</style>
<g transform="rotate(-20.000007 26.18584657 4.61727658)">
	<path class="st0" d="M17.6,2.7c-0.9,0.4-1.4-1.4-2.1,0.5c-0.4,1-0.5-1.9-1.1-2C14,1.2,12.7,1.7,12,2c-0.2-0.1-1.7-1.1-1.9-1.1
		C9.4,0.8,9.2,0.3,9,0.9c-0.2,0.5-0.3,2-0.5,4.4L8-5.4c0-1.2-0.8-1.3-1.9-1.3S4.8-7,4.8-5.8l0,10.1c0,0.2-0.1,3.9-0.2,4
		C4.5,8.5,4.1,9.2,4,9.2C1.1,7.8,0.5,6.7,0.4,6.7c-0.4,0-1,0-1.4,0.2c0,0-1,1.3-0.7,1.7c2.3,2.6,7.4,8.3,7.4,8.3
		C6,17.3,6.5,17.7,7,17.8l8.4,0c0.9,0,3.4-2.2,3.5-3.2l0-4.3c0.1-1,0.9-6.6,0.1-7C19,3.2,17.6,2.7,17.6,2.7z"/>
	<path class="st1" d="M-2.8,7.8L-2.8,7.8L-2.8,7.8l0.5-0.4C-1.7,6.9-0.8,6.5,0,6.6c0.8,0,3,1.4,3.1,1.5c0,0,0.1,0.1,0.2,0.1
		C3.6,8.4,3.9,8.6,4,8.6c0.1,0,0.1-0.5,0.1-0.8c0-0.1,0-0.1,0-0.1l0-1.7l0,0l0-11c0-1.3,1-2.3,2.3-2.3c1.2,0,2.3,1,2.3,2.3l0,5.8
		C9,0.5,9.5,0.3,9.9,0.3l0,0c0.9,0,1.6,0.5,2,1.2c0.4-0.4,1-0.7,1.6-0.7c1,0,1.8,0.6,2.1,1.5c0.4-0.4,0.9-0.5,1.5-0.5l0,0
		c1.2,0,2.3,1,2.3,2.3c0,0.4,0,0.7,0,1c0,1.7,0,2.6,0,4.5c0,0.4,0,0.8,0,1.3c0,0.5,0,1.2,0,1.9c0,3.1-2.4,5.6-5.4,5.6l0,0l-5.8,0
		c-2,0-3.4-1.5-4.7-2.9l-6.3-7l-0.1-0.1C-3,8.2-2.9,8-2.8,7.8z M5,7.3c0,0.4,0.1,1.9-0.8,2.1l-0.1,0c-0.6,0-1.8-0.7-2.6-1.2
		c-1-0.7-1.1-0.7-1.4-0.7H0c-0.6,0-1.2,0.2-1.6,0.6l0,0c-0.1,0-0.1,0.1-0.1,0.2c-0.1,0.1,0,0.3,0.1,0.4L4.1,15
		c0.1,0.1,0.3,0.3,0.4,0.4c0.7,0.8,2.2,2.1,3.7,2.1l5.8,0c2.4,0,4.4-2.1,4.4-4.6c0-1.4,0-2.4,0-3.2c0-2.2,0-3,0-5.5
		c0-0.8-0.6-1.4-1.3-1.4l0,0c-0.7,0-1.3,0.6-1.3,1.4v1.1c0,0.4-0.5,0.7-0.9,0.2c0,0,0,0,0-0.1l0-2.2c0-0.8-0.6-1.4-1.3-1.4
		c-0.7,0-1.3,0.6-1.3,1.4l0,2.2c0,0.4-0.5,0.7-0.9,0.2c0,0,0,0,0-0.1l0-3c0-0.8-0.6-1.4-1.3-1.4l0,0c-0.7,0-1.3,0.6-1.3,1.3l0,3.1
		c0,0.4-0.5,0.7-0.9,0.2c0,0,0,0,0-0.1L7.7-5c0-0.8-0.6-1.4-1.3-1.4C5.7-6.4,5-5.8,5-5L5,7.3L5,7.3z"/>
</g>
</svg>
