<?xml version="1.0" encoding="utf-8"?>
<!-- Generator: Adobe Illustrator 24.1.2, SVG Export Plug-In . SVG Version: 6.00 Build 0)  -->
<svg version="1.1" id="Layer_1" xmlns="http://www.w3.org/2000/svg" xmlns:xlink="http://www.w3.org/1999/xlink" x="0px" y="0px"
	 viewBox="0 0 26.8 27.9" style="enable-background:new 0 0 26.8 27.9;" xml:space="preserve">
<style type="text/css">
	.st0{fill-rule:evenodd;clip-rule:evenodd;fill:#F04E31;}
	.st1{fill-rule:evenodd;clip-rule:evenodd;}
</style>
<g transform="rotate(-20.000007 26.18584657 4.61727658)">
	<path class="st0" d="M19.9,4.6c-1.1,0.5-2.1,0.7-2.5,0.6C16.3,4.9,16,3,15.4,2.9c-0.5-0.1-1.2,0.5-2,0.8c-0.2-0.1-2-1.3-2.2-1.3
		c-0.8-0.1-1-0.7-1.3,0C9.6,3,9.4,4.7,9.3,7.5L8.8-4.9c0-1.4-1-1.5-2.2-1.5S5.1-6.7,5.1-5.3l0,11.8c0,0.2-0.1,4.6-0.3,4.7
		c-0.1,0.1-0.5,1-0.7,0.9c-3.4-1.6-4-2.9-4.2-2.9c-0.5,0-1.2,0-1.6,0.2c0,0-1.2,1.6-0.8,2C0.1,14.4,6.4,21,6.4,21
		c0.4,0.5,0.6,1.1,1.1,1.1l9.8,0c1.1,0,3.9-2.5,4-3.7l0-5c0.2-1.1,1-7.7,0.1-8.1C21.6,5.2,19.9,4.6,19.9,4.6z"/>
	<path class="st1" d="M-3.8,10.4L-3.8,10.4L-3.8,10.4l0.6-0.5C-2.5,9.4-1.5,9-0.5,9c0.9,0.1,3.5,1.7,3.6,1.7c0,0,0.1,0.1,0.3,0.2
		c0.3,0.2,0.7,0.5,0.8,0.4c0.2,0,0.1-0.6,0.1-0.9c0-0.1,0-0.1,0-0.1l0-2c0,0,0,0,0,0l0-12.8c0-1.5,1.2-2.7,2.6-2.7
		c1.5,0,2.6,1.2,2.6,2.7l0,6.7c0.4-0.3,1-0.5,1.5-0.5l0,0c1,0,1.9,0.6,2.3,1.5c0.5-0.5,1.1-0.8,1.8-0.8c1.1,0,2.1,0.7,2.5,1.7
		c0.5-0.4,1.1-0.6,1.7-0.6h0c1.4,0,2.6,1.2,2.6,2.7c0,0.4,0,0.8,0,1.1c0,2,0,3,0,5.2c0,0.5,0,1,0,1.6c0,0.6,0,1.4,0,2.2
		c0,3.6-2.8,6.5-6.2,6.5v0l-6.8,0c-2.3,0-4-1.7-5.5-3.3l-7.4-8.2c0,0-0.1-0.1-0.1-0.2C-4,10.9-3.9,10.7-3.8,10.4z M5.3,9.9
		c0,0.4,0.1,2.2-0.9,2.4l-0.1,0c-0.7,0-2.1-0.8-3-1.3c-1.3-0.8-1.5-0.8-1.8-0.8c0,0-0.1,0-0.2,0c-0.7,0-1.3,0.2-1.8,0.6l0,0
		c-0.1,0-0.1,0.1-0.1,0.2c-0.1,0.2,0,0.3,0.1,0.5l6.7,7.4c0.2,0.2,0.3,0.3,0.5,0.5c0.9,1,2.6,2.5,4.3,2.5l6.8,0
		c2.8,0,5.2-2.4,5.2-5.4c0-1.6,0-2.8,0-3.7c0-2.6,0-3.5,0-6.4c0-0.9-0.7-1.6-1.5-1.6h0c-0.8,0-1.5,0.7-1.5,1.6v1.3
		c0,0.5-0.6,0.8-1.1,0.3c0,0,0,0,0-0.1V5.2c0-0.9-0.7-1.6-1.5-1.6c-0.8,0-1.5,0.7-1.5,1.6l0,2.5c0,0.5-0.6,0.8-1.1,0.3
		c0,0,0,0,0-0.1l0-3.5c0-0.9-0.7-1.6-1.5-1.6h0c-0.8,0-1.5,0.7-1.5,1.5l0,3.6c0,0.5-0.6,0.8-1.1,0.3c0,0,0,0,0-0.1l0-12.7
		c0-0.9-0.7-1.6-1.5-1.6C6-6.1,5.3-5.4,5.3-4.5L5.3,9.9C5.3,9.8,5.3,9.9,5.3,9.9z"/>
</g>
</svg>
