<svg xmlns="http://www.w3.org/2000/svg" width="197" height="23" viewBox="0 0 197 23">
  <g fill="none">
    <path fill="#FFF" d="M108.14 6.045C106.555718 5.96413355 105.017245 6.5905122 103.94 7.755 102.913333 8.895 102.401667 10.455 102.405 12.435 102.408333 14.415 102.89 15.9883333 103.85 17.155 104.816667 18.2683333 106.195 18.8266667 107.985 18.83 109.096493 18.8418918 110.203583 18.6885505 111.27 18.375L111.27 19.25C110.139068 19.6093221 108.956304 19.7782884 107.77 19.75 105.991385 19.8374935 104.265802 19.1304074 103.06 17.82 101.916667 16.53 101.343333 14.73 101.34 12.42 101.313791 11.1019508 101.594521 9.79587109 102.16 8.605 102.677953 7.54084573 103.499054 6.65363964 104.52 6.055 105.611068 5.43998686 106.847875 5.13078508 108.1 5.16 109.380818 5.13609536 110.650572 5.40098352 111.815 5.935L111.42 6.83C110.404435 6.31180048 109.28013 6.04272142 108.14 6.045L108.14 6.045zM125.245 14.54L119.5 14.54 117.5 19.54 116.4 19.54 122.11 5.29 122.74 5.29 128.33 19.54 127.215 19.54 125.245 14.54zM119.835 13.65L124.915 13.65 123 8.53C122.835 8.13 122.64 7.575 122.415 6.86 122.257548 7.4344006 122.065531 7.99876235 121.84 8.55L119.835 13.65zM142.86 9.435C142.9308 10.6500575 142.411421 11.8247121 141.465 12.59 140.528333 13.32 139.206667 13.685 137.5 13.685L135.31 13.685 135.31 19.55 134.31 19.55 134.31 5.355 137.785 5.355C141.168333 5.355 142.86 6.715 142.86 9.435zM135.31 12.83L137.26 12.83C138.86 12.83 140.015 12.57 140.725 12.04 141.435 11.51 141.795 10.66 141.795 9.475 141.867992 8.55047145 141.496702 7.64637916 140.795 7.04 140.128333 6.51333333 139.086667 6.25 137.67 6.25L135.32 6.25 135.31 12.83z"/>
    <polygon fill="#FFF" points="149.925 19.55 149.925 5.355 150.925 5.355 150.925 19.55"/>
    <polygon fill="#FFF" points="162.61 19.55 161.61 19.55 161.61 6.29 157 6.29 157 5.355 167.22 5.355 167.22 6.29 162.61 6.29"/>
    <path fill="#FFF" d="M180.14,14.54 L174.375,14.54 L172.375,19.54 L171.275,19.54 L177,5.3 L177.63,5.3 L183.22,19.55 L182.105,19.55 L180.14,14.54 Z M174.73,13.65 L179.81,13.65 L177.88,8.53 C177.715,8.13 177.52,7.575 177.295,6.86 C177.13685,7.43357906 176.946549,7.9978043 176.725,8.55 L174.73,13.65 Z"/>
    <polygon fill="#FFF" points="189.215 19.55 189.215 5.355 190.215 5.355 190.215 18.62 196.98 18.62 196.98 19.55"/>
    <polygon fill="#FFF" points="5.62 21.2 .285 21.2 .285 1.14 12.14 1.14 12.14 5.5 5.64 5.5 5.64 9.325 11.64 9.325 11.64 13.675 5.64 13.675"/>
    <polygon fill="#FFF" points="21.055 21.2 21.055 1.14 26.5 1.14 26.5 21.2"/>
    <path fill="#FFF" d="M55.56,21.2 L48.455,21.2 L41.125,7.065 L41,7.065 C41.175,9.29 41.265,10.985 41.265,12.16 L41.265,21.2 L36.46,21.2 L36.46,1.14 L43.54,1.14 L50.84,15.08 L50.925,15.08 C50.795,13.06 50.73,11.4366667 50.73,10.21 L50.73,1.14 L55.56,1.14 L55.56,21.2 Z"/>
    <polygon fill="#FFF" points="69.815 1.14 76.095 10.91 69.54 21.2 63.405 21.2 70.06 10.935 63.805 1.14"/>
    <polygon fill="#68CDF0" points="74.73 3.685 77.685 8.435 82.395 1.105 76.395 1.105"/>
    <polygon fill="#68CDF0" points="77.81 13.73 74.81 18.395 76.56 21.185 82.48 21.145"/>
    <line x1="91.875" x2="91.875" y1=".4" y2="22.77" fill="#FFF" stroke="#FFF" stroke-width=".62"/>
  </g>
</svg>
