<svg xmlns="http://www.w3.org/2000/svg" width="59" height="67" viewBox="0 0 59 67">
  <g>
    <path fill="rgb(241,239,238)" fill-rule="evenodd" d="M59 16.7500001V63.108242c0 1.0322648-.4080211 2.0223504-1.1351914 2.7522718C57.1376382 66.5904353 56.1512843 67 55.1229102 67H12.8164838c-1.0283741 0-2.0147281-.4095647-2.7418984-1.1394862-.72717039-.7299214-1.13519146-1.720007-1.13519146-2.7522718V3.89175801c0-1.03226476.40802107-2.02235037 1.13519146-2.75227182C10.8017557.40956473 11.7881097 0 12.8164838 0h29.4966474L59 16.7500001z"/>
    <path fill="rgb(80,80,80)" fill-rule="evenodd" d="M59 16.75H46.4848485c-2.3013008-.0064696-4.1652719-1.8774927-4.1717172-4.1875V0L59 16.75z"/>
    <g>
      <path fill="rgb(147,147,147)" fill-rule="evenodd" d="M4 33.49999986h34.9090909c2.2076601 0 4 1.7923399 4 4v14.1339286c0 2.2076601-1.7923399 4-4 4H4c-2.2076601 0-4-1.7923399-4-4v-14.1339286c0-2.2076601 1.7923399-4 4-4z"/>
      <path fill="rgb(240,78,49)" fill-rule="evenodd" d="M4 31.705357h34.9090909c2.2076601 0 4 1.7923399 4 4v14.1339286c0 2.2076601-1.7923399 4-4 4H4c-2.2076601 0-4-1.7923399-4-4V35.705357c0-2.2076601 1.7923399-4 4-4z"/>
    </g>
    <path fill="rgb(255,255,255)" fill-rule="evenodd" d="M10.72729492 47.85714722h1.5982666V44.4954834h1.62414551c1.8581543 0 3.04064942-.98104859 3.04064942-2.8515625 0-1.77893067-1.05249024-2.75997925-3.14453125-2.75997925h-3.11853028v8.97320557zm10.6809082 0h-2.9366455v-8.97320557h2.92358398c2.72875977 0 4.2619629 1.32113648 4.2619629 4.25115967v.26159668c0 2.87771606-1.3902588 4.46044922-4.24890137 4.46044922zm5.89916993-8.97320557v8.97320557h1.5982666V44.0769043h3.01452637v-1.24264527h-3.01452637v-2.68151855h3.87207031v-1.26879883h-5.47033691zm-14.98181153 4.40811157v-3.1654663h1.35131836c1.18249512 0 1.63720703.43167114 1.63720703 1.60888671 0 1.04644776-.45471191 1.5565796-1.663208 1.5565796h-1.32531739zm7.7442627 3.29629517v-6.43560791h1.234375c1.68920898 0 2.66381836.70635986 2.66381836 2.9692688v.43167114c0 2.1713562-.80566406 3.03466797-2.546875 3.03466797h-1.35131836z"/>
    <path fill="rgb(147,147,147)" fill-rule="evenodd" d="M58.95202607 30.50893364L48.86869365 16.8154576l10.13131318-.06545252-.04798076 13.75892855z"/>
  </g>
</svg>
