<svg xmlns="http://www.w3.org/2000/svg" width="29.5" height="33.5" viewBox="0 0 29.5 33.5">
  <g>
    <path fill="rgb(241,239,238)" fill-rule="evenodd" d="M29.49999989 8.37500006V31.554121c.00017298.51613238-.20401042 1.01117518-.5675956 1.3761359-.36358518.36496073-.85676215.56991663-1.3709492.56974299H6.40824188c-.51418706.00017364-1.00736403-.20478226-1.3709492-.56974298-.36358519-.36496073-.5677686-.86000353-.56759561-1.37613591V1.945879c-.00017298-.51613238.20401042-1.01117518.5675956-1.3761359C5.40087786.20478236 5.89405483-.00017354 6.40824188 1e-7h14.74832374l8.34343427 8.37499995z"/>
    <path fill="rgb(80,80,80)" fill-rule="evenodd" d="M29.5 8.375h-6.25757576c-1.15065039-.00323482-2.08263596-.93874636-2.08585858-2.09375V0L29.5 8.375z"/>
    <g>
      <path fill="rgb(147,147,147)" fill-rule="evenodd" d="M4 16.75h13.45454545c2.2076601 0 4 1.7923399 4 4v3.06696429c0 2.2076601-1.7923399 4-4 4H4c-2.2076601 0-4-1.7923399-4-4V20.75c0-2.2076601 1.7923399-4 4-4z"/>
      <path fill="rgb(240,78,49)" fill-rule="evenodd" d="M4 15.85267857h13.45454545c2.2076601 0 4 1.7923399 4 4v3.06696429c0 2.2076601-1.7923399 4-4 4H4c-2.2076601 0-4-1.7923399-4-4v-3.06696429c0-2.2076601 1.7923399-4 4-4z"/>
    </g>
    <path fill="rgb(255,255,255)" fill-rule="evenodd" d="M5.36364746 23.92858887h.7991333V22.2477417h.81210327c.92904663 0 1.52026368-.49053955 1.52026368-1.42578125 0-.88946533-.52624512-1.38000488-1.57223511-1.38000488H5.36364746v4.4866333zm5.34042358 0H9.23577881v-4.4866333h1.461792c1.36434936 0 2.13101195.6605835 2.13101195 2.12554931v.13085938c0 1.43884277-.69519043 2.2302246-2.12451172 2.2302246zm2.94961548-4.4866333v4.4866333h.7991333v-1.89013672h1.50726319v-.6213379h-1.50726319v-1.34075927h1.93606568v-.63439941h-2.73519898zm-7.49093628 2.20410156v-1.58276367h.6756897c.59121704 0 .81860352.21582031.81860352.80444336 0 .5232544-.22738648.7783203-.831604.7783203h-.66268922zm3.87216187 1.64807129v-3.21777344h.61721802c.84457397 0 1.33184814.35314941 1.33184814 1.48461914v.21582031c0 1.08569336-.40280151 1.51733399-1.27337646 1.51733399h-.6756897z"/>
    <path fill="rgb(147,147,147)" fill-rule="evenodd" d="M29.47601345 15.2544671l-5.04166619-6.84673802 5.0656566-.03272623-.02399041 6.87946425z"/>
  </g>
</svg>
